<svg xmlns="http://www.w3.org/2000/svg" viewBox="0 0 320 660" font-family="Segoe UI, Roboto, Helvetica, Arial, sans-serif">
  <defs>
    <linearGradient id="bg" x1="0" y1="0" x2="0" y2="1">
      <stop offset="0" stop-color="#07111F"/><stop offset="0.5" stop-color="#0A1830"/><stop offset="1" stop-color="#07111F"/>
    </linearGradient>
    <linearGradient id="gold" x1="0" y1="0" x2="1" y2="1">
      <stop offset="0" stop-color="#FFCE45"/><stop offset="1" stop-color="#E09A00"/>
    </linearGradient>
  </defs>
  <rect x="4" y="4" width="312" height="652" rx="34" fill="url(#bg)" stroke="#1d2b45" stroke-width="2"/>
  <text x="26" y="34" fill="#ffffff" font-size="11" font-weight="700">9:41</text>
  <text x="270" y="34" fill="#ffffff" font-size="10">▮▮▮ ▾</text>

  <text x="26" y="74" fill="#ffffff" font-size="20" font-weight="800">Events</text>
  <circle cx="284" cy="68" r="15" fill="#1d3a5c"/><text x="284" y="73" text-anchor="middle" font-size="12">🔍</text>

  <!-- filter chips -->
  <g font-size="10" font-weight="700">
    <rect x="22" y="92" width="50" height="26" rx="13" fill="url(#gold)"/><text x="47" y="109" text-anchor="middle" fill="#00274D">All</text>
    <rect x="80" y="92" width="74" height="26" rx="13" fill="#ffffff" fill-opacity="0.06" stroke="#ffffff" stroke-opacity="0.1"/><text x="117" y="109" text-anchor="middle" fill="#ffffff" fill-opacity="0.7">Meetings</text>
    <rect x="162" y="92" width="92" height="26" rx="13" fill="#ffffff" fill-opacity="0.06" stroke="#ffffff" stroke-opacity="0.1"/><text x="208" y="109" text-anchor="middle" fill="#ffffff" fill-opacity="0.7">Competition</text>
  </g>

  <!-- calendar card -->
  <rect x="22" y="130" width="276" height="196" rx="18" fill="#ffffff" fill-opacity="0.05" stroke="#ffffff" stroke-opacity="0.08"/>
  <text x="38" y="154" fill="#ffffff" font-size="13" font-weight="800">June 2026</text>
  <text x="266" y="154" fill="#ffffff" fill-opacity="0.5" font-size="12">‹  ›</text>
  <g font-size="9" fill="#ffffff" fill-opacity="0.45" text-anchor="middle">
    <text x="50" y="176">S</text><text x="86" y="176">M</text><text x="122" y="176">T</text><text x="158" y="176">W</text><text x="194" y="176">T</text><text x="230" y="176">F</text><text x="266" y="176">S</text>
  </g>
  <g font-size="10" fill="#ffffff" text-anchor="middle">
    <!-- week rows -->
    <g>
      <text x="50" y="198">1</text><text x="86" y="198">2</text><text x="122" y="198">3</text><text x="158" y="198">4</text><text x="194" y="198">5</text><text x="230" y="198">6</text><text x="266" y="198">7</text>
    </g>
    <g>
      <text x="50" y="222">8</text><text x="86" y="222">9</text><text x="122" y="222">10</text><text x="158" y="222">11</text><text x="194" y="222">12</text><text x="230" y="222">13</text><text x="266" y="222">14</text>
    </g>
    <g>
      <text x="50" y="246">15</text><text x="86" y="246">16</text><text x="122" y="246">17</text>
      <circle cx="158" cy="242" r="13" fill="#4D9DE0"/><text x="158" y="246" font-weight="800">18</text>
      <text x="194" y="246">19</text><text x="230" y="246">20</text><text x="266" y="246">21</text>
    </g>
    <g>
      <text x="50" y="270">22</text><text x="86" y="270">23</text><text x="122" y="270">24</text><text x="158" y="270">25</text><text x="194" y="270">26</text><text x="230" y="270">27</text><text x="266" y="270">28</text>
    </g>
    <g>
      <text x="50" y="294">29</text><text x="86" y="294">30</text>
    </g>
  </g>
  <!-- event dots -->
  <circle cx="158" cy="255" r="2.4" fill="#FDB913"/>
  <circle cx="86" cy="231" r="2.4" fill="#4D9DE0"/>
  <circle cx="230" cy="207" r="2.4" fill="#D9534F"/>

  <!-- selected day event detail -->
  <text x="26" y="350" fill="#ffffff" font-size="12" font-weight="700">Thu, June 18</text>
  <rect x="22" y="360" width="276" height="118" rx="16" fill="#ffffff" fill-opacity="0.05" stroke="#4D9DE0" stroke-opacity="0.4"/>
  <rect x="22" y="360" width="5" height="118" rx="2.5" fill="#4D9DE0"/>
  <text x="40" y="386" fill="#ffffff" font-size="14" font-weight="800">Chapter Meeting</text>
  <text x="40" y="404" fill="#ffffff" fill-opacity="0.6" font-size="10">🕓 4:00–5:00 PM   📍 Room 204</text>
  <text x="40" y="422" fill="#ffffff" fill-opacity="0.6" font-size="10">Officer reports + NLC prep walkthrough.</text>
  <!-- RSVP buttons -->
  <rect x="40" y="436" width="74" height="28" rx="9" fill="url(#gold)"/><text x="77" y="454" text-anchor="middle" fill="#00274D" font-size="10" font-weight="800">Going</text>
  <rect x="122" y="436" width="74" height="28" rx="9" fill="#ffffff" fill-opacity="0.06" stroke="#ffffff" stroke-opacity="0.12"/><text x="159" y="454" text-anchor="middle" fill="#ffffff" fill-opacity="0.7" font-size="10">Maybe</text>
  <!-- reminder toggle -->
  <text x="210" y="446" fill="#ffffff" fill-opacity="0.6" font-size="9">Remind</text>
  <rect x="252" y="438" width="34" height="18" rx="9" fill="#4D9DE0"/><circle cx="278" cy="447" r="7" fill="#ffffff"/>
  <text x="210" y="458" fill="#ffffff" fill-opacity="0.4" font-size="8">1 day before</text>

  <!-- FAB -->
  <circle cx="270" cy="556" r="24" fill="url(#gold)"/><text x="270" y="563" text-anchor="middle" fill="#00274D" font-size="22" font-weight="800">+</text>

  <!-- bottom nav -->
  <rect x="14" y="600" width="292" height="48" rx="20" fill="#0b1730" stroke="#ffffff" stroke-opacity="0.06"/>
  <g text-anchor="middle" font-size="8.5">
    <g transform="translate(46,612)"><text y="10" font-size="14">🏠</text><text y="26" fill="#ffffff" fill-opacity="0.55">Home</text></g>
    <g transform="translate(108,612)"><rect x="-18" y="-4" width="36" height="34" rx="12" fill="#4D9DE0" fill-opacity="0.18"/><text y="10" font-size="14">📅</text><text y="26" fill="#4D9DE0" font-weight="700">Events</text></g>
    <g transform="translate(170,612)"><text y="10" font-size="14">📚</text><text y="26" fill="#ffffff" fill-opacity="0.55">Resources</text></g>
    <g transform="translate(232,612)"><text y="10" font-size="14">📰</text><text y="26" fill="#ffffff" fill-opacity="0.55">Feeds</text></g>
    <g transform="translate(286,612)"><text y="10" font-size="14">⋯</text><text y="26" fill="#ffffff" fill-opacity="0.55">More</text></g>
  </g>
</svg>
